<svg width="194px" height="131px" viewBox="0 0 194 131" version="1.1" xmlns="http://www.w3.org/2000/svg" xmlns:xlink="http://www.w3.org/1999/xlink">
    <!-- Generator: Sketch 43.2 (39069) - http://www.bohemiancoding.com/sketch -->
    <desc>Created with Sketch.</desc>
    <defs></defs>
    <g id="Page-1" stroke="none" stroke-width="1" fill="none" fill-rule="evenodd">
        <g id="merk-logo" fill-rule="nonzero">
            <g id="logo">
                <path d="M193.6865,64.206 C191.3591,31.7498 164.0245,6.3244 131.4556,6.3244 C130.7492,6.3244 130.0365,6.3405 129.3238,6.3644 C131.2829,8.8427 132.9585,11.5285 134.3161,14.3769 C161.4059,15.8113 183.7648,37.5065 185.7229,64.7767 C187.8644,94.6767 165.2362,120.7448 135.2796,122.8871 C133.9688,122.9797 132.6419,123.0274 131.3292,123.0274 C104.8527,123.0293 82.4147,104.2386 77.7765,78.2699 C78.9678,74.9053 79.5697,71.3733 79.5697,67.7566 C79.5697,50.2849 65.3266,36.0677 47.8223,36.0677 C30.4328,36.0677 16.1915,50.186 16.0744,67.5414 L16.0613,69.6097 L26.9785,69.6097 L26.9985,67.5715 C27.0961,56.213 36.4387,46.971 47.8223,46.971 C59.3035,46.971 68.6442,56.2962 68.6442,67.7566 C68.6442,79.2213 59.3035,88.5465 47.8223,88.5465 C47.7043,88.5465 47.5897,88.5446 47.476,88.5417 L45.3491,88.4745 L45.3491,99.4133 L47.3779,99.4455 L47.8223,99.4494 C57.284,99.4494 66.0749,95.3136 72.0721,88.2067 C80.4268,113.6077 104.2175,131 131.3292,131 C132.8278,131 134.3478,130.9474 135.8503,130.8374 C152.4891,129.6522 167.6704,122.0652 178.5945,109.4806 C189.5186,96.896 194.8792,80.8174 193.6865,64.206 Z" id="Shape" fill="#13CDF0"></path>
                <path d="M137.001,21.6888 C137.942,25.2252 138.4416,28.9189 138.4416,32.7022 C138.4416,32.7621 138.4372,32.8219 138.4372,32.8818 C155.2414,36.1612 167.9255,50.9261 167.9255,68.6593 C167.9255,88.7978 151.5691,105.1238 131.3912,105.1238 C111.2133,105.1238 94.8573,88.7978 94.8573,68.6593 C94.8573,68.4402 94.8617,68.2221 94.8642,68.0029 L94.8739,68.0029 C94.8739,41.8774 73.655,20.6965 47.4799,20.6965 C36.6134,20.6965 26.6049,24.3488 18.612,30.4867 L18.5594,30.4176 C-2.2137,46.3146 -6.1421,76.0116 9.788,96.7441 C25.239,116.8573 53.6927,121.1372 74.3462,106.8621 C72.3257,103.8335 70.6471,100.5585 69.3627,97.0927 C53.3649,109.1135 30.6157,106.0431 18.4052,90.1475 C13.2554,83.4408 10.7987,75.5189 10.867,67.6757 L10.9485,67.6757 C11.1261,47.6867 27.4122,31.5385 47.4799,31.5385 C67.6578,31.5385 84.0142,47.8635 84.0142,68.0029 L84.0045,68.0029 C84.0025,68.2221 83.9952,68.4382 83.9952,68.6593 C83.9952,94.7858 105.2166,115.9662 131.3912,115.9662 C157.5673,115.9662 178.7852,94.7858 178.7852,68.6593 C178.7852,44.4269 160.5303,24.4603 137.001,21.6888 Z" id="Shape" fill="#0CA8DE"></path>
                <path d="M72.616,23.0916 C76.4453,13.9562 85.4664,7.5266 96.0096,7.5266 C110.0206,7.5266 121.3778,18.8657 121.3778,32.8526 C121.3778,46.1101 111.1674,56.9813 98.1686,58.0759 C98.5262,59.597 98.733,61.1677 98.7813,62.7706 C98.8745,63.6919 98.9511,64.6189 98.995,65.5538 C115.7699,64.0463 128.9219,49.9883 128.9219,32.8526 C128.9219,14.708 114.1845,0 96.0096,0 C82.4439,0 70.8047,8.1947 65.7666,19.8911 C68.1388,20.7924 70.4252,21.866 72.616,23.0916 Z" id="Shape" fill="#0CA8DE"></path>
                <path d="M82.3508,30.1318 L82.6552,30.18 C83.941,22.5141 91.1826,17.2998 98.8882,18.5161 C106.6371,19.7417 111.9274,27.0058 110.6986,34.7413 C109.4723,42.4759 102.1946,47.7559 94.4461,46.5289 C94.4047,46.523 94.3651,46.5152 94.3242,46.5084 C94.9871,47.9409 95.5857,49.4075 96.1169,50.9071 C105.2595,51.1915 113.4016,44.6538 114.8709,35.4011 C116.4621,25.3645 109.602,15.9438 99.5501,14.354 C90.2992,12.8904 81.5742,18.5711 78.9975,27.3033 C80.1561,28.1992 81.2737,29.1438 82.3508,30.1318 Z" id="Shape" fill="#13CDF0"></path>
                <path d="M137.405,41.5907 C135.8513,48.9469 132.3566,55.7913 127.1731,61.419 C121.0061,68.113 112.9279,72.5906 104.0907,74.2977 C106.7259,86.8599 117.9075,96.3234 131.2629,96.3234 C146.5724,96.3234 159.0268,83.8917 159.0268,68.6106 C159.0268,55.4368 149.7676,44.3894 137.405,41.5907 Z" id="Shape" fill="#13CDF0"></path>
            </g>
        </g>
    </g>
</svg>
