<svg width="24" height="24" viewBox="0 0 24 24" fill="none" xmlns="http://www.w3.org/2000/svg">
<g clip-path="url(#clip0_5221_32497)">
<path d="M11.9998 5.2V1H7.7998" stroke="#181818" stroke-width="2.1" stroke-linecap="round" stroke-linejoin="round"/>
<path d="M7.79961 17.8L3.59961 22V7.29995C3.59961 6.743 3.82086 6.20885 4.21469 5.81503C4.60851 5.4212 5.14265 5.19995 5.69961 5.19995H18.2996C18.8566 5.19995 19.3907 5.4212 19.7845 5.81503C20.1784 6.20885 20.3996 6.743 20.3996 7.29995V15.7C20.3996 16.2569 20.1784 16.791 19.7845 17.1849C19.3907 17.5787 18.8566 17.8 18.2996 17.8H7.79961Z" stroke="#181818" stroke-width="2.1" stroke-linecap="round" stroke-linejoin="round"/>
<path d="M1.5 11.4998H3.6" stroke="#181818" stroke-width="2.1" stroke-linecap="round" stroke-linejoin="round"/>
<path d="M8.84961 10.45V12.55" stroke="#181818" stroke-width="2.1" stroke-linecap="round" stroke-linejoin="round"/>
<path d="M15.1504 10.45V12.55" stroke="#181818" stroke-width="2.1" stroke-linecap="round" stroke-linejoin="round"/>
<path d="M20.4004 11.4998H22.5004" stroke="#181818" stroke-width="2.1" stroke-linecap="round" stroke-linejoin="round"/>
</g>
<defs>
<clipPath id="clip0_5221_32497">
<rect width="24" height="24" fill="white"/>
</clipPath>
</defs>
</svg>
