<?xml version="1.0" encoding="utf-8"?>
<!-- Generator: Adobe Illustrator 21.1.0, SVG Export Plug-In . SVG Version: 6.00 Build 0)  -->
<svg version="1.1" id="Layer_1" xmlns="http://www.w3.org/2000/svg" xmlns:xlink="http://www.w3.org/1999/xlink" x="0px" y="0px"
	 viewBox="0 0 600 600" style="enable-background:new 0 0 600 600;" xml:space="preserve">
<style type="text/css">
	.st0{fill:#1D1A1A;}
	.st1{fill:#FAAB18;}
</style>
<circle class="st0" cx="300" cy="300" r="300"/>
<g>
	<path class="st1" d="M548.7,331.8v10.4c0,1.8-0.6,3.6-1.6,5.2c-0.8,1.5-2,2.7-3.5,3.5c-1.5,0.9-3.3,1.4-5,1.4
		c-1.8,0-3.6-0.5-5.2-1.4c-1.5-0.8-2.7-2-3.5-3.5c-0.9-1.6-1.4-3.3-1.4-5.2V291c0-1.8,0.5-3.5,1.4-5c0.8-1.5,2-2.7,3.5-3.5
		c1.5-1,3.3-1.5,5.2-1.6c1.8,0,3.5,0.6,5,1.6c1.5,0.8,2.7,2,3.5,3.5c1,1.5,1.5,3.2,1.6,5v11.5l9.3-1.2V291c0-3.5-0.9-6.9-2.7-9.9
		c-1.7-2.9-4-5.3-6.8-7.1c-3-1.7-6.5-2.6-9.9-2.7c-3.5,0.1-6.9,1-9.9,2.7c-2.9,1.7-5.3,4.2-7,7.1c-1.8,3-2.8,6.4-2.7,9.9v51.2
		c-0.1,3.5,0.9,6.9,2.7,9.9c3.4,6.1,9.9,9.8,16.9,9.6c7,0.2,13.4-3.5,16.8-9.7c1.8-3,2.8-6.4,2.7-9.9v-10.4H548.7z M494.9,250.9h9.4
		v-12.7h-9.4V250.9z M504.3,360.9h-9.4v-99.7h9.4V360.9z M485.5,271.4c-4.1-0.1-8.2,0.7-12,2.2c-2.8,1.2-5.3,3.2-7.1,5.7l-1.7-6.8
		h-6.3v88.4h9.4V292c0-2,0.5-4,1.4-5.8c0.9-1.6,2.3-3,4-3.9c1.7-1,3.6-1.5,5.5-1.6h6.7L485.5,271.4z M416.1,281.9h11.3v66.9
		c0,2.3,0.6,4.6,1.8,6.6c1.1,2,2.7,3.6,4.7,4.7c2,1.2,4.3,1.8,6.6,1.8v-9.4c-1,0-1.9-0.4-2.6-1c-0.5-0.8-0.9-1.6-1-2.6v-66.9h11.5
		v-9.4h-11.5v-18.2l-9.4,1.2v17h-11.3V281.9z M378.1,291c0-1.8,0.5-3.5,1.4-5c0.8-1.5,2.1-2.7,3.5-3.5c3.1-2.1,7.2-2.1,10.3,0
		c1.5,0.8,2.7,2.1,3.5,3.5c0.9,1.5,1.4,3.3,1.3,5v17.8h-20.1L378.1,291z M398.4,331.8v10.4c0.1,1.8-0.4,3.6-1.3,5.2
		c-0.8,1.5-2.1,2.7-3.5,3.5c-3.2,1.9-7.1,1.9-10.3,0c-1.5-0.8-2.7-2.1-3.5-3.5c-0.9-1.6-1.4-3.4-1.4-5.2v-23.9h29.4V291
		c0.1-3.5-0.8-6.9-2.6-9.9c-1.7-2.9-4.2-5.3-7.1-7.1c-3-1.7-6.4-2.6-9.8-2.7c-3.5,0.1-6.9,1-9.9,2.7c-2.8,1.8-5.2,4.2-7,7.1
		c-1.8,3-2.7,6.4-2.7,9.9v51.2c0,3.5,0.9,6.9,2.7,9.9c1.7,2.9,4.1,5.3,7,7.1c3,1.7,6.4,2.6,9.9,2.6c3.4,0,6.8-0.9,9.8-2.6
		c2.9-1.7,5.4-4.1,7.1-7.1c1.8-3,2.7-6.4,2.6-9.9v-11.7L398.4,331.8z M343.3,257.4h0.3v103.5h9.4V238.5h-14.3l-20.3,107.9H318
		l-20-107.9h-14.1v122.3h9.4V258.3h0.4l19.4,102.6h10.7L343.3,257.4z M266.8,290c0-3.3-0.8-6.5-2.4-9.4c-1.7-2.7-4-4.9-6.7-6.6
		c-2.8-1.6-6-2.5-9.3-2.6c-3.3,0-6.5,0.9-9.3,2.6c-2.7,1.6-5,3.9-6.7,6.6c-1.6,2.9-2.5,6.1-2.5,9.4v11.5l9.4-1V290
		c0-1.6,0.4-3.2,1.2-4.6c0.8-1.4,1.9-2.5,3.4-3.2c1.4-0.8,2.9-1.3,4.5-1.3c1.6,0,3.2,0.5,4.6,1.3c1.3,0.7,2.4,1.9,3.1,3.2
		c0.9,1.4,1.3,3,1.3,4.6v8.8c0,1.8-0.5,3.5-1.3,5c-0.6,1.4-1.5,2.7-2.6,3.7l-2.8,2.3c-0.4,0.3-0.8,0.5-1.2,0.7l-14.1,8.1
		c0,0-0.4,0.3-1.2,0.9c-1.1,0.6-2,1.5-2.7,2.5c-1.2,1.2-2.1,2.7-2.8,4.3c-0.8,1.9-1.2,3.9-1.2,5.9v9.9c0,3.5,0.9,6.9,2.6,9.9
		c3.5,6.1,10,9.7,17,9.7c2.5,0.1,5-0.4,7.2-1.4c2.3-0.8,4.4-2,6.1-3.7c1.2,1.3,2.6,2.4,4.3,3.1c1.7,0.8,3.5,1.2,5.3,1.2v-9.4
		c-0.8,0-1.7-0.4-2.2-1c-0.7-0.6-1.1-1.4-1-2.3L266.8,290z M237.1,332.2c0-1.1,0.3-2.1,0.8-3.1c0.5-0.7,1-1.2,1.7-1.7
		c0.2-0.3,0.5-0.5,0.8-0.7l13.9-8c0.4-0.2,0.7-0.4,1-0.6c0.7-0.5,1.4-1.1,2.1-1.8v25.8c0,1.8-0.5,3.6-1.4,5.2
		c-0.8,1.5-2.1,2.7-3.5,3.5c-1.6,0.9-3.4,1.4-5.3,1.4c-1.8,0-3.5-0.5-5-1.4c-1.5-0.8-2.8-2-3.7-3.5c-0.8-1.6-1.3-3.4-1.3-5.2
		L237.1,332.2z M190,351.4V238.5h-9.5v122.3h39.1v-9.4H190z"/>
	<path class="st1" d="M103.7,238.2c-34,0-61.6,27.6-61.7,61.6c0,34,27.6,61.6,61.6,61.7s61.6-27.6,61.7-61.6c0,0,0,0,0,0
		C165.3,265.8,137.7,238.2,103.7,238.2z M130.2,345.7V272h-9.8v78.2c-3.7,1.2-7.6,2.1-11.5,2.5v-42.9h-9.8v42.9
		c-4.5-0.4-8.9-1.3-13.1-2.8V272h-9.8v73.2c-25-15.2-32.9-47.8-17.7-72.7c15.2-25,47.8-32.9,72.7-17.7s32.9,47.8,17.7,72.7
		C144.2,335,137.9,341.2,130.2,345.7z"/>
</g>
</svg>
