<?xml version="1.0" ?><svg id="Layer_1" style="enable-background:new 0 0 52 52;" version="1.1" viewBox="0 0 52 52" xml:space="preserve" xmlns="http://www.w3.org/2000/svg" xmlns:xlink="http://www.w3.org/1999/xlink"><style type="text/css">
	.st0{fill:#231F20;}
</style><g><g><path class="st0" d="M5.486701,3.0901184c2.1873713,1.8409748,4.4988918,3.000977,7.1010466,4.1204805    c1.1882467,0.51121,1.3706446,0.3710084,0.8267746,1.4179544c-0.3077383,0.592392-1.0755997,1.1128063-1.5491228,1.6068411    c-1.2366104,1.2901764-2.4383774,2.5989809-3.5615158,3.9901228c0.5303297,0,1.0606594,0,1.5909901,0    c-1.8015356-1.50173-3.5114837-3.1173048-5.0068955-4.9291782C3.404932,7.4994478,3.7078259,6.6042762,5.1094003,4.98844    C5.827599,4.160449,6.5808496,3.4066319,7.4175487,2.6989577c1.10706-0.936344-0.491302-2.5210996-1.5909905-1.5909903    C3.989089,2.662087,0.8071368,5.3361459,1.5108593,8.0654106c0.7795255,3.0232544,4.5227089,5.8585987,6.7930241,7.7510967    c0.4279556,0.3567371,1.1822996,0.5062122,1.5909901,0c1.4984312-1.8559875,3.1540918-3.5532446,4.802001-5.2745428    c0.7840796-0.8189983,2.1760902-1.8410902,1.8465481-3.1666203c-0.2737923-1.1012807-1.623167-1.578681-2.5513134-1.9947925    c-2.5146856-1.1273971-4.7832699-2.0877683-6.9144177-3.8814235C5.9765601,0.5723741,4.3770065,2.1561575,5.486701,3.0901184    L5.486701,3.0901184z"/></g><g><path class="st0" d="M40.1989746,2.649086c-3.5384941,3.4590511-11.3022957,9.6796722-5.0629616,14.7287636    c5.7723618,4.6711979,11.3451462-3.3787937,14.7886009-6.9356222c-0.62677-0.1654749-1.25354-0.3309507-1.8803101-0.4964256    c1.6788292,6.1265993,1.669323,13.5178099-6.7342834,13.9217253c-2.7645264,0.1328754-6.4012184-0.9524784-9.0474205-0.0514488    c-2.0531044,0.6990795-3.3921452,2.9725399-4.7863636,4.5540009c-2.6061325,2.9561367-5.2122669,5.9122696-7.8183994,8.8684044    c-2.3658791,2.6836166-4.6434402,5.5206795-7.3186064,7.905941c-1.1298723,1.0711632-2.3651905,1.9937553-3.7059546,2.7677689    c-4.1774855-1.6945419-5.2373915-3.3150215-3.179718-4.8614388c0.9155674-1.7312698,3.5499048-3.462532,4.9581909-4.8361588    c6.1387119-5.9876213,12.2774239-11.9752407,18.4161358-17.9628639c0.2841187-0.2771244,0.3981419-0.7132092,0.28932-1.0945644    c-1.1515903-4.0355768-1.3894463-9.011096,1.5508633-12.2779036c3.4979591-3.8863788,7.5406036-4.200491,12.360527-3.7279017    c-0.2651634-0.6401651-0.5303307-1.2803302-0.7954941-1.9204953c-0.7974319,0.5464358-1.5948639,1.0928714-2.3922958,1.6393073    c-1.2627754,0.708802-0.1297836,2.6530855,1.1356163,1.9428089c1.581543-0.8877304,1.4609528-0.8223519,2.8476677-1.9911258    c0.8224411-0.6931825,0.0751801-1.8351264-0.7954941-1.920495C36.7678108,0.2874984,31.8440132,1.207563,27.9753742,6.5712519    c-1.6212883,2.247839-1.8560772,4.2824125-1.8384762,7.0333347c0.0069389,1.0847502,0.1918011,2.2016611,0.1698647,3.2733355    c-0.0482559,2.357605-0.4406147,2.8115501-1.90312,4.546339c-5.8647823,6.956665-13.3668861,12.9311504-19.8327618,19.3446217    c-2.5863485,2.5653877-6.2106438,6.5559158-1.6871412,9.4185715c4.3956785,2.7817612,9.379508-1.7780571,12.3330374-4.6841393    c5.7484903-5.6561394,10.1845789-12.9980545,16.2561111-18.2709846c4.2043133-3.65131,11.6359234,0.8878689,16.4084492-3.0801964    c4.4508057-3.7005749,3.6870613-9.8615761,2.3325958-14.804471c-0.2211151-0.8069172-1.2891464-1.1070547-1.8803101-0.4964256    c-1.3166008,1.3599501-4.3123817,5.844347-6.1951675,6.3704796c-1.8526192-1.9530725-3.7052383-3.9061451-5.5578613-5.8592176    c0.3108635-0.3138847,0.621727-0.6277704,0.9325867-0.9416552c0.6914063-1.2980623,3.2204475-3.1481447,4.2767868-4.180768    C42.8271599,3.2261665,41.2356148,1.6357208,40.1989746,2.649086L40.1989746,2.649086z"/></g><g><path class="st0" d="M12.0584946,13.3226013c2.0044298,1.243597,3.2087431,3.2668343,4.6443138,5.0768661    c1.5591297,1.9658203,3.3069992,3.7474194,5.2017879,5.3895607c1.0895233,0.9442501,2.6876278-0.6405754,1.5909901-1.5909901    c-2.1815796-1.8906937-4.136301-3.9692402-5.8745537-6.2747679c-1.3057556-1.7318869-2.5573931-3.3835783-4.4269199-4.543478    C11.9602194,10.614255,10.8291712,12.5598984,12.0584946,13.3226013L12.0584946,13.3226013z"/></g><g><path class="st0" d="M34.8472328,29.0650406c3.1417465,2.8110027,6.5517273,5.6218719,9.079319,8.9936905    c0.9191704,1.2261696,1.9134483,2.2188492,2.9196091,3.3645172c1.9473572,2.2173615,2.5607224,3.1689796,0.7132263,5.5514946    c-0.5443573,1.8300095-1.6177025,2.4013939-3.2200394,1.7141533c-1.3456001,0.1320572-2.4606895-0.3259277-3.3452644-1.3739586    c-3.0724907-2.450676-5.8629379-5.3961945-8.4284401-8.3630409c-0.6224327-0.7198067-1.4046669-1.4708748-1.9001122-2.2840309    c-1.2562447-2.0618286-0.5807419-2.0584221,0.7514629-3.3578758c1.5676289-1.5290852,3.1932659-2.9895782,4.8517017-4.4192028    c1.0985909-0.9470215-0.4988365-2.5324612-1.5909882-1.5909901c-2.5847855,2.2281647-5.0461006,4.5561981-7.4145679,7.0130615    c-0.3130112,0.3246956-0.4748554,0.9668503-0.175909,1.3633041c3.7369957,4.9559555,8.0501823,10.3871956,13.202301,13.9513664    c2.6602631,1.8403358,6.1828766,2.4413795,8.8478317,0.149231c2.6210098-2.2543526,2.7241173-6.0458069,0.6257515-8.6508026    c-3.9594078-4.9153709-8.5943718-9.4193859-13.324894-13.651907    C35.3619499,26.5110836,33.7653961,28.0970955,34.8472328,29.0650406L34.8472328,29.0650406z"/></g><g><path class="st0" d="M28.5633354,29.7977905c0.6338902,0.5887146,1.2677803,1.1774311,1.9016705,1.7661457    c1.0599518,0.9844151,2.6547375-0.6030521,1.5909901-1.5909901c-0.6338902-0.5887165-1.2677803-1.1774311-1.9016705-1.7661476    C29.0943737,27.2223854,27.499588,28.8098526,28.5633354,29.7977905L28.5633354,29.7977905z"/></g><g><path class="st0" d="M43.9836998,37.9911499c-1.0478935,1.4146614-2.2094574,2.6575928-3.3100128,3.9990044    c-1.1196404,1.3646698-2.087822,2.7754822-3.3360825,4.0407829c-1.0179024,1.0317955,0.5720634,2.6238213,1.5909882,1.5909882    c1.312748-1.3306656,2.3072472-2.8612366,3.5293427-4.2536049c1.2119484-1.3808136,2.3602791-2.7453461,3.4685745-4.2415543    C46.7890244,37.962368,44.8370476,36.8391266,43.9836998,37.9911499L43.9836998,37.9911499z"/></g></g></svg>