<?xml version="1.0" ?><!DOCTYPE svg  PUBLIC '-//W3C//DTD SVG 1.1//EN'  'http://www.w3.org/Graphics/SVG/1.1/DTD/svg11.dtd'><svg enable-background="new 0 0 128 128" height="128px" id="Layer_1" version="1.1" viewBox="0 0 128 128" width="128px" xml:space="preserve" xmlns="http://www.w3.org/2000/svg" xmlns:xlink="http://www.w3.org/1999/xlink"><g><path d="M128,103.998c0,13.254-10.746,24-24,24H24c-13.256,0-24-10.746-24-24v-80c0-13.254,10.744-24,24-24h80   c13.254,0,24,10.746,24,24V103.998z" fill="#369DD2"/><g><path d="M43.32,37.652c-0.83,0-1.5-0.672-1.5-1.5v-9.016c0-0.828,0.67-1.5,1.5-1.5c0.828,0,1.5,0.672,1.5,1.5    v9.016C44.82,36.98,44.148,37.652,43.32,37.652z" fill="#FFFFFF"/></g><g><path d="M20.533,60.443h-9.02c-0.828,0-1.5-0.672-1.5-1.5c0-0.828,0.672-1.5,1.5-1.5h9.02    c0.828,0,1.5,0.672,1.5,1.5C22.033,59.771,21.361,60.443,20.533,60.443z" fill="#FFFFFF"/></g><g><path d="M59.017,44.746c-0.385,0-0.768-0.146-1.061-0.439c-0.586-0.586-0.586-1.535,0-2.121l5.566-5.566    c0.586-0.586,1.537-0.586,2.123,0s0.586,1.535,0,2.121l-5.567,5.566C59.785,44.6,59.4,44.746,59.017,44.746z" fill="#FFFFFF"/></g><g><path d="M22.056,81.705c-0.385,0-0.77-0.146-1.062-0.439c-0.584-0.586-0.584-1.535,0.002-2.121l5.564-5.562    c0.586-0.586,1.535-0.586,2.121,0s0.586,1.536,0,2.121l-5.564,5.562C22.824,81.559,22.439,81.705,22.056,81.705z" fill="#FFFFFF"/></g><g><path d="M27.433,44.555c-0.383,0-0.768-0.146-1.061-0.439l-5.377-5.375c-0.586-0.585-0.586-1.535-0.002-2.121    c0.586-0.586,1.537-0.586,2.123,0l5.377,5.375c0.586,0.585,0.586,1.535,0,2.121C28.201,44.408,27.818,44.555,27.433,44.555z" fill="#FFFFFF"/></g><path d="M99.326,100.359H46.703c-9.186,0-16.66-7.477-16.66-16.664c0-8.232,6.115-15.239,14.137-16.465   c1.312-7.787,8.004-13.517,16.035-13.517c0.914,0,1.828,0.078,2.729,0.232c4.376-6.676,11.912-10.779,19.917-10.779   c13.117,0,23.787,10.673,23.787,23.791c0,0.569-0.021,1.151-0.065,1.737c5.748,2.771,9.401,8.541,9.401,14.998   C115.984,92.884,108.512,100.359,99.326,100.359z" fill="#FFFFFF"/><path d="M32.085,70.619c2.516-2.814,5.822-4.924,9.592-5.928c2.059-7.312,8.229-12.674,15.725-13.762   c-2.791-4.894-8.046-8.2-14.082-8.2c-8.955,0-16.215,7.26-16.215,16.214C27.105,63.533,29.021,67.669,32.085,70.619z" fill="#FFFFFF"/></g></svg>