<svg xmlns="http://www.w3.org/2000/svg" viewBox="0 0 28 52">
    <path d="M15.648 32.507c4.619 3.49 9.595 5.898 11.561 6.8a.355.355 0 0 0 .55-.248.364.364 0 0 0-.043-.233c-.626-1.565-2.116-5.055-4.41-10.08a4.494 4.494 0 0 1-.358-2.348c1.103-8.396-3.963-10.563-8.284-13.18h-.06c-1.638-.813-6.465-3.401-7.3-9.992a.302.302 0 0 0-.178-.204.295.295 0 0 0-.269.024c-4.35 3.46-5.215 9.81-2.205 13.482a.544.544 0 0 1-.224.866.531.531 0 0 1-.342.006c-.983-.27-1.967-.872-2.384-1.474a.21.21 0 0 0-.226-.098.208.208 0 0 0-.161.188c-.596 1.956.06 3.942.774 5.025a.97.97 0 0 1 0 1.174c-3.695 5.056-2.056 11.706 1.55 15.95a.483.483 0 0 0 .67.135.488.488 0 0 0 .135-.677c-1.014-2.047-2.176-4.996-2.235-7.885v-.06a7.253 7.253 0 0 1 .645-3.087 7.186 7.186 0 0 1 1.892-2.51 7.098 7.098 0 0 1 2.774-1.452 7.055 7.055 0 0 1 3.122-.113c.465.07.924.182 1.37.331h.03a.65.65 0 0 0 .804-.349.667.667 0 0 0 .06-.313 5.806 5.806 0 0 0-1.668-4.002.482.482 0 0 1 .357-.843c2.742.12 7.777 1.264 7.36 8.035-.119 2.227-2.503 2.919-3.04 3.16a2.27 2.27 0 0 0-.964.826 2.303 2.303 0 0 0-.376 1.22c-.003.378.09.75.268 1.083l.06.09c.148.245.34.46.566.632l.179.12Z"
          fill="#0B0204"/>
    <path d="M23.781 43.28a6.488 6.488 0 0 0-.745-2.589 7.343 7.343 0 0 0-1.192-1.655 7.875 7.875 0 0 0-3.874-2.137l-.298-.09c-9.029-2.347-10.638-6.5-10.727-8.908a.636.636 0 0 0-.489-.618.62.62 0 0 0-.703.347c-1.758 3.34 1.132 8.366 1.758 9.149 5.692 7.313 13.17 6.44 14.125 11.255a.302.302 0 0 0 .188.226.296.296 0 0 0 .288-.046c.306-.279.567-.603.775-.963a6.096 6.096 0 0 0 .894-3.822v-.15Z"
          fill="#0B0204"/>
</svg>
