<?xml version="1.0" ?><svg data-name="Layer 1" id="Layer_1" viewBox="0 0 32 32" xmlns="http://www.w3.org/2000/svg"><path d="M7,25A7,7,0,0,1,7,11a1,1,0,0,1,0,2A5,5,0,0,0,7,23a1,1,0,0,1,0,2Z"/><path d="M25,25a1,1,0,0,1,0-2,5,5,0,0,0,0-10,1,1,0,0,1,0-2,7,7,0,0,1,0,14Z"/><path d="M25,13a1,1,0,0,1-1-1A8,8,0,0,0,8,12a1,1,0,0,1-2,0,10,10,0,0,1,20,0A1,1,0,0,1,25,13Z"/><path d="M22,29H10a1,1,0,0,1-1-1V20a1,1,0,0,1,1-1H22a1,1,0,0,1,1,1v8A1,1,0,0,1,22,29ZM11,27H21V21H11Z"/><path d="M16,26a1,1,0,0,1-.64-.23l-6-5a1,1,0,0,1,1.28-1.54l6,5a1,1,0,0,1,.13,1.41A1,1,0,0,1,16,26Z"/><path d="M16,26a1,1,0,0,1-.77-.36,1,1,0,0,1,.13-1.41l6-5a1,1,0,1,1,1.28,1.54l-6,5A1,1,0,0,1,16,26Z"/><path d="M10,29a1,1,0,0,1-.77-.36,1,1,0,0,1,.13-1.41l4.8-4a1,1,0,0,1,1.28,1.54l-4.8,4A1,1,0,0,1,10,29Z"/><path d="M22,29a1,1,0,0,1-.64-.23l-4.8-4a1,1,0,0,1,1.28-1.54l4.8,4a1,1,0,0,1,.13,1.41A1,1,0,0,1,22,29Z"/></svg>