<svg width="258px" height="170px" viewBox="0 0 258 170" version="1.1" xmlns="http://www.w3.org/2000/svg" xmlns:xlink="http://www.w3.org/1999/xlink">
    <g id="Page-1" stroke="none" stroke-width="1" fill="none" fill-rule="evenodd">
        <g id="Group" transform="translate(-1.000000, -1.000000)" fill="#E34048" fill-rule="nonzero">
            <path d="M100.086,169.953 C96.7926124,169.944672 93.7147514,168.314331 91.8576671,165.594458 C90.0005828,162.874585 89.6027113,159.414391 90.794,156.344 L138.016,61.637 L138.016,61.637 L140.981,55.724 L129.83,33.388 L120.174,52.75 L120.174,52.75 L68.874,155.533 L68.916,155.533 L64.549,164.285 L64.481,164.42 C61.8293183,168.9623 56.1107994,170.671993 51.4010585,168.330573 C46.6913176,165.989153 44.602362,160.39802 46.623,155.542 L96.394,55.673 L85.285,33.388 L19.934,164.454 C18.3568891,167.674482 15.1748338,169.802772 11.5961696,170.030686 C8.01750534,170.2586 4.59116555,168.551178 2.6182488,165.556786 C0.645332058,162.562394 0.428465198,158.740344 2.05,155.542 L76.187,6.829 C77.1416986,4.75746034 78.7746692,3.07369091 80.816,2.056 C83.1859446,0.868599312 85.9310472,0.673337725 88.445202,1.51332809 C90.9593567,2.35331845 93.0357774,4.15947255 94.216,6.533 L94.216,6.592 L94.216,6.592 L107.516,33.253 L120.897,6.533 C122.610864,3.09288509 126.146918,0.941661298 129.989856,1.00119377 C133.832795,1.06072624 137.300518,3.3204483 138.907,6.812 L152.107,33.287 L165.276,6.846 C166.241571,4.76060166 167.893593,3.06975053 169.956,2.056 C171.324183,1.36667884 172.833987,1.00514757 174.366,0.999244066 C178.156487,0.99679547 181.621941,3.14013916 183.312,6.533 L183.312,6.533 L183.312,6.575 L257.558,155.482 C260.01483,160.42141 258.007524,166.417374 253.072,168.882 C248.132797,171.341806 242.134669,169.333776 239.672,164.396 L174.372,33.39 L164.725,52.744 L164.725,52.744 L113.441,155.533 L113.441,155.533 L109.006,164.433 C107.313603,167.809725 103.862096,169.943848 100.085,169.949 L100.086,169.953 Z M204.127,169.953 L204.127,169.953 C200.335978,169.958089 196.869612,167.814181 195.181,164.42 L163.249,100.387 L174.408,78 L213.039,155.533 C215.49583,160.47241 213.488524,166.468374 208.553,168.933 C207.176615,169.612532 205.660974,169.962428 204.126,169.955116 L204.127,169.953 Z M159.583,169.953 L159.583,169.953 C155.792513,169.956018 152.327059,167.812861 150.637,164.42 L140.981,145.058 L152.14,122.672 L168.512,155.508 C170.96883,160.44741 168.961524,166.443374 164.026,168.908 C162.644143,169.600039 161.119458,169.95895 159.574,169.956018 L159.583,169.953 Z" id="Shape"></path>
        </g>
    </g>
</svg>
