<?xml version="1.0" ?><!DOCTYPE svg  PUBLIC '-//W3C//DTD SVG 1.1//EN'  'http://www.w3.org/Graphics/SVG/1.1/DTD/svg11.dtd'><svg enable-background="new 0 0 24 24" height="24px" id="Layer_1" version="1.1" viewBox="0 0 24 24" width="24px" xml:space="preserve" xmlns="http://www.w3.org/2000/svg" xmlns:xlink="http://www.w3.org/1999/xlink"><g id="icon"><path d="M19.0711,19.0711c-3.8936,3.8936,-10.2486,3.8936,-14.1421,0s-3.8936,-10.2485,0,-14.1421s10.2486,-3.8936,14.1421,0S22.9647,15.1774,19.0711,19.0711z" fill="#F6F7FB" fill-rule="evenodd"/><path d="M19.7961,4.2539L4.2539,19.7961C8.5351,24.0772,15.5209,24.0791,19.8,19.8S24.0772,8.5351,19.7961,4.2539z" fill="#231F20" fill-rule="evenodd" opacity="0.06"/><path d="M12,1C5.9346,1,1,5.9346,1,12c0,6.0655,4.9346,11,11,11c6.0655,0,11,-4.9345,11,-11C23,5.9346,18.0655,1,12,1zM16.8501,9.897L16.8405,9.8h4.1005l0.0165,0.069c0.1372,0.5617,0.2295,1.4635,0.2295,2.2365c0,0.6551,-0.0662,1.2509,-0.2278,2.0226L20.9443,14.2h-4.0968l0.008,-0.0997c0.0612,-0.7651,0.0885,-1.3901,0.0885,-2.0043C16.9439,11.3674,16.9054,10.4578,16.8501,9.897zM15.7413,20.4977l-0.2137,0.0939l0.0735,-0.2245c0.4141,-1.261,0.772,-2.8449,1.0073,-4.3106l0.0131,-0.0564h3.6795l-0.0738,0.1177C19.2494,18.011,17.6141,19.6594,15.7413,20.4977zM16.5676,8c-0.238,-1.4,-0.5823,-2.8527,-1.0519,-4.2262l-0.0736,-0.2044l0.2119,0.0804C17.6252,4.5078,19.2348,6.1,20.195,8H16.5676zM15.1308,12.1057c0,0.626,-0.0273,1.2158,-0.0942,2.0103l-0.0071,0.084H8.9747l-0.0072,-0.0827c-0.0689,-0.7836,-0.0983,-1.3901,-0.0983,-2.0164c0,-0.7335,0.0439,-1.6544,0.1066,-2.22L8.9846,9.8h6.035l0.0086,0.0825C15.0886,10.4496,15.1308,11.3696,15.1308,12.1057zM7.3869,16l0.0133,0.0533c0.2499,1.4698,0.6332,3.1132,1.0517,4.3506l0.0733,0.2103l-0.212,-0.0972c-1.8892,-0.8311,-3.5441,-2.4866,-4.5411,-4.3995L3.6984,16H7.3869zM8.3892,3.6276l0.2162,-0.0815l-0.078,0.2108C8.0513,5.1222,7.6873,6.6,7.4451,8H3.8034C4.7359,6.1,6.3203,4.5152,8.3892,3.6276zM9.2896,8c0.4606,-2.4,1.1682,-4.3648,1.4809,-5.0313l0.0233,-0.0384l0.0577,-0.0016c0.7702,-0.0963,1.5728,-0.0915,2.3465,0.0097l0.0563,0.0088l0.024,0.034C13.5856,3.6454,14.2783,5.6,14.7256,8H9.2896zM7.1466,14.106l0.0077,0.094h-4.098l-0.0146,-0.0705c-0.1602,-0.7652,-0.2286,-1.3771,-0.2286,-2.0342c0,-0.7644,0.0922,-1.6676,0.2282,-2.225L3.0582,9.8h4.1056l-0.0105,0.1039c-0.0573,0.56,-0.0973,1.4756,-0.0973,2.2123C7.0561,12.7314,7.0823,13.3146,7.1466,14.106zM14.7892,16l-0.0196,0.0881c-0.436,2.5113,-1.1121,4.4123,-1.408,5.0176l-0.0231,0.0412l-0.0554,0.0046c-0.8212,0.1151,-1.6712,0.1182,-2.5154,0.0047l-0.0541,-0.0079l-0.0244,-0.0494c-0.304,-0.6114,-0.9973,-2.51,-1.445,-5.0109L9.224,16H14.7892z" fill="#3D73AD"/></g></svg>