<?xml version="1.0" ?><!DOCTYPE svg  PUBLIC '-//W3C//DTD SVG 1.1//EN'  'http://www.w3.org/Graphics/SVG/1.1/DTD/svg11.dtd'><svg enable-background="new 0 0 512 512" id="Layer_1" version="1.1" viewBox="0 0 512 512" xml:space="preserve" xmlns="http://www.w3.org/2000/svg" xmlns:xlink="http://www.w3.org/1999/xlink"><g id="Funnel"><path d="M389,116.8c37.7,0,68.3,30.7,68.3,68.3s-30.7,68.3-68.3,68.3c-37.7,0-68.3-30.7-68.3-68.3   S351.3,116.8,389,116.8 M389,79.5c-58.3,0-105.6,47.3-105.6,105.6S330.6,290.8,389,290.8s105.6-47.3,105.6-105.6   S447.3,79.5,389,79.5L389,79.5z" fill="#0D87B9"/><path d="M389,79.5c-58.3,0-105.6,47.3-105.6,105.6c0,50.7,35.7,93,83.4,103.2l19.6-35.2   c-36.4-1.4-65.7-31.3-65.7-68.1c0-37.7,30.7-68.3,68.3-68.3c23.5,0,44.2,11.9,56.5,30l19.4-34.9C445.7,92,418.8,79.5,389,79.5z" fill="#066594"/><polygon fill="#0D87B9" points="302,329.9 216.2,329.9 37.3,40.4 480.9,40.4  "/><polygon fill="#122B47" points="302,421 216.2,495.8 216.2,329.9 302,329.9  "/><polygon fill="#0D7AA5" points="259.1,40.4 37.3,40.4 216.2,329.9 259.1,329.9  "/><polygon fill="#066594" points="451.6,87.9 478.2,44.7 40,44.7 66.7,87.9  "/><path d="M24.2,64.6h463.5c13.3,0,24.2-10.9,24.2-24.2v0c0-13.3-10.9-24.2-24.2-24.2H24.2C10.9,16.2,0,27.1,0,40.4v0   C0,53.7,10.9,64.6,24.2,64.6z" fill="#122B47"/><polygon fill="#0C1C2C" points="259.1,329.9 216.2,329.9 216.2,495.8 259.1,458.4  "/><path d="M259.1,16.2H24.2C10.9,16.2,0,27.1,0,40.4c0,13.3,10.9,24.2,24.2,24.2h234.9V16.2z" fill="#0C1C2C"/></g></svg>